<svg width="21" height="20" viewBox="0 0 21 20" fill="none" xmlns="http://www.w3.org/2000/svg">
<path d="M4.18334 15.1C5.03334 14.45 5.98334 13.9375 7.03334 13.5625C8.08334 13.1875 9.18334 13 10.3333 13C11.4833 13 12.5833 13.1875 13.6333 13.5625C14.6833 13.9375 15.6333 14.45 16.4833 15.1C17.0667 14.4167 17.5208 13.6417 17.8458 12.775C18.1708 11.9083 18.3333 10.9833 18.3333 10C18.3333 7.78333 17.5542 5.89583 15.9958 4.3375C14.4375 2.77917 12.55 2 10.3333 2C8.11668 2 6.22918 2.77917 4.67084 4.3375C3.11251 5.89583 2.33334 7.78333 2.33334 10C2.33334 10.9833 2.49584 11.9083 2.82084 12.775C3.14584 13.6417 3.60001 14.4167 4.18334 15.1ZM10.3333 11C9.35001 11 8.52084 10.6625 7.84584 9.9875C7.17084 9.3125 6.83334 8.48333 6.83334 7.5C6.83334 6.51667 7.17084 5.6875 7.84584 5.0125C8.52084 4.3375 9.35001 4 10.3333 4C11.3167 4 12.1458 4.3375 12.8208 5.0125C13.4958 5.6875 13.8333 6.51667 13.8333 7.5C13.8333 8.48333 13.4958 9.3125 12.8208 9.9875C12.1458 10.6625 11.3167 11 10.3333 11ZM10.3333 20C8.95001 20 7.65001 19.7375 6.43334 19.2125C5.21668 18.6875 4.15834 17.975 3.25834 17.075C2.35834 16.175 1.64584 15.1167 1.12084 13.9C0.595843 12.6833 0.333344 11.3833 0.333344 10C0.333344 8.61667 0.595843 7.31667 1.12084 6.1C1.64584 4.88333 2.35834 3.825 3.25834 2.925C4.15834 2.025 5.21668 1.3125 6.43334 0.7875C7.65001 0.2625 8.95001 0 10.3333 0C11.7167 0 13.0167 0.2625 14.2333 0.7875C15.45 1.3125 16.5083 2.025 17.4083 2.925C18.3083 3.825 19.0208 4.88333 19.5458 6.1C20.0708 7.31667 20.3333 8.61667 20.3333 10C20.3333 11.3833 20.0708 12.6833 19.5458 13.9C19.0208 15.1167 18.3083 16.175 17.4083 17.075C16.5083 17.975 15.45 18.6875 14.2333 19.2125C13.0167 19.7375 11.7167 20 10.3333 20Z" fill="currentColor"/>
</svg>
