<svg width="19" height="18" viewBox="0 0 19 18" fill="none" xmlns="http://www.w3.org/2000/svg">
<path d="M2.66669 18C2.11669 18 1.64169 17.8083 1.24169 17.425C0.858354 17.025 0.666687 16.55 0.666687 16V2C0.666687 1.45 0.858354 0.983334 1.24169 0.600001C1.64169 0.2 2.11669 0 2.66669 0H16.6667C17.2167 0 17.6834 0.2 18.0667 0.600001C18.4667 0.983334 18.6667 1.45 18.6667 2V16C18.6667 16.55 18.4667 17.025 18.0667 17.425C17.6834 17.8083 17.2167 18 16.6667 18H2.66669ZM2.66669 16H16.6667V2H2.66669V16ZM3.66669 14H15.6667L11.9167 9L8.91669 13L6.66669 10L3.66669 14ZM2.66669 16V2V16Z" fill="currentColor"/>
</svg>
