<svg width="18" height="18" viewBox="0 0 18 18" fill="none" xmlns="http://www.w3.org/2000/svg">
<path d="M8.00006 11V6.85L6.40006 8.45L5.00006 7L9.00006 3L13.0001 7L11.6001 8.45L10.0001 6.85V11H8.00006ZM2.00006 18C1.45006 18 0.975061 17.8083 0.575061 17.425C0.191728 17.025 6.10352e-05 16.55 6.10352e-05 16V2C6.10352e-05 1.45 0.191728 0.983334 0.575061 0.600001C0.975061 0.2 1.45006 0 2.00006 0H16.0001C16.5501 0 17.0167 0.2 17.4001 0.600001C17.8001 0.983334 18.0001 1.45 18.0001 2V16C18.0001 16.55 17.8001 17.025 17.4001 17.425C17.0167 17.8083 16.5501 18 16.0001 18H2.00006ZM2.00006 16H16.0001V13H13.0001C12.5001 13.6333 11.9001 14.125 11.2001 14.475C10.5167 14.825 9.78339 15 9.00006 15C8.21673 15 7.47506 14.825 6.77506 14.475C6.09173 14.125 5.50006 13.6333 5.00006 13H2.00006V16ZM9.00006 13C9.6334 13 10.2084 12.8167 10.7251 12.45C11.2417 12.0833 11.6001 11.6 11.8001 11H16.0001V2H2.00006V11H6.20006C6.40006 11.6 6.75839 12.0833 7.27506 12.45C7.79173 12.8167 8.36673 13 9.00006 13ZM2.00006 16H5.00006C5.50006 16 6.09173 16 6.77506 16C7.47506 16 8.21673 16 9.00006 16C9.78339 16 10.5167 16 11.2001 16C11.9001 16 12.5001 16 13.0001 16H16.0001H2.00006Z" fill="currentColor"/>
</svg>
